<svg id="Layer_1" data-name="Layer 1" xmlns="http://www.w3.org/2000/svg" viewBox="0 0 900 900"><defs><style>.cls-1{fill:#10a37f;}.cls-2{fill:#fff;}</style></defs><title>icons </title><circle class="cls-1" cx="450" cy="450" r="450"/><path class="cls-2" d="M739.27,507.37c-.54,3.5-1.18,7-1.63,10.5C734,546.73,722,571.68,702.41,593c-20.59,22.47-46,36.74-75.58,43.71-2.1.5-3.29,1.18-4,3.38-17.24,53.94-54.23,86.53-108.79,99.45a135.28,135.28,0,0,1-33.19,3.58c-41.25-.7-77-15.22-106-45a8.1,8.1,0,0,0-8-2.66c-42.28,6.45-81.05-2.39-115.21-28.36-31.24-23.76-49.76-55.31-54.37-94.54a130.88,130.88,0,0,1,9.05-66.09c.92-2.24.66-3.53-1.17-5.23-22.45-20.9-37.31-46.35-42.25-76.59-7.51-45.95,4.9-86.28,37.43-120,20.22-20.92,44.82-34.12,73.11-40.58,2.06-.47,3.52-1.11,4.3-3.6C294.52,207,331,173.72,385.07,161.09c47.34-11.06,90.71-.41,128.84,30a148.25,148.25,0,0,1,15.47,15c2,2.18,3.91,2.86,6.69,2.39,30.19-5.15,59.52-2,87.31,10.89,45.09,20.93,73.51,55.44,82.53,104.86,4.61,25.26,1.41,49.82-8.22,73.56-1,2.44-.92,3.92,1.08,6C718.08,423.66,731,447,736.31,474.26c1.09,5.52,1.39,11.19,2.12,16.79a5.55,5.55,0,0,0,.84,1.64ZM629.88,599.9c4.68-1.85,8.7-3.09,12.42-4.95,45.12-22.58,69.44-77.52,56.53-127.35-7.71-29.74-25.49-51.67-51.73-67.12-25.91-15.26-51.71-30.7-77.74-45.75-12.11-7-24.67-13.23-37-19.89-4.21-2.27-8.07-2.34-12.28.25-12.8,7.87-25.73,15.52-38.59,23.29a30.83,30.83,0,0,0-3.29,2.65,16.32,16.32,0,0,0,1.58,1.32q47.13,27.48,94.25,54.93c14.66,8.53,29.32,17.08,44,25.52,7.57,4.34,11.69,10.54,11.49,19.44-.1,4.86,0,9.72,0,14.59q-.06,58.05-.13,116.11C629.45,594.84,629.68,596.74,629.88,599.9Zm-116.36-81c-1.71.75-2.89,1.15-3.95,1.75-18.49,10.37-37.05,20.62-55.43,31.18q-40.09,23.05-80,46.5c-5.68,3.33-11.71,5.25-18,3.66a55.24,55.24,0,0,1-13.65-6c-32-18.39-63.8-37-95.75-55.39-5.39-3.1-11.14-5.57-17.22-8.58a33.28,33.28,0,0,0-.88,4.15c-1.07,18.54.73,36.68,7.53,54.14,22.65,58.15,86.38,85.88,143.83,61.77,15.19-6.38,29.45-15.08,43.82-23.28,29.13-16.62,58-33.65,87.07-50.4a5.42,5.42,0,0,0,3.11-5.47c-.14-16.59-.11-33.19-.16-49.79C513.84,521.94,513.67,520.72,513.52,518.91ZM421.85,539.2c-2.07-1.26-3.13-1.93-4.22-2.56q-68-39.57-136-79.09c-8.05-4.67-11.91-11.29-11.84-20.49.22-27.26.49-54.53.53-81.8,0-17.23-.32-34.46-.53-51.69a22.72,22.72,0,0,0-.47-3c-3.36,1.05-6.55,1.82-9.57,3-12.46,5-22.56,13.25-31.37,23.12-27,30.21-37.76,64.89-27.52,104.77,6.07,23.64,17.82,44.08,37.94,58.7,8.82,6.4,18.19,12.1,27.59,17.64,22.57,13.32,45.3,26.38,68,39.5,10,5.78,20.12,11.38,30.13,17.17,5.64,3.26,10.92,3.37,16.6-.25,8-5.12,16.37-9.68,24.49-14.62C410.88,546.46,416,543,421.85,539.2ZM488.8,219.6a55.24,55.24,0,0,0-18.07-14.38c-21.56-11.09-44.43-13.79-68.15-10.12-38,5.88-65.79,26.14-83.35,60.29-8.56,16.64-10.72,34.82-10.91,53.12-.42,41.94-.12,83.89-.41,125.83,0,5.27,1.94,8.56,6,10.94q20.52,11.84,41.15,23.46a22.44,22.44,0,0,0,4.07,1.26v-5.6c0-49.41.41-98.82-.24-148.22-.21-15.95,5.6-26.33,19.51-33.89,31.71-17.23,63-35.22,94.46-53C478.14,226.37,483.16,223.06,488.8,219.6ZM386.18,381.7c5.55-2.91,10.59-5.33,15.42-8.12q61.71-35.73,123.32-71.64c9.93-5.81,19.18-5.72,29,.17q33.71,20.24,67.74,39.94c14.23,8.21,28.76,15.9,43.21,23.73,1.55.85,3.45,1.06,6.4,1.91-.42-10.76-.21-20.5-1.27-30.1-3.1-28.2-14.94-52.31-36.45-70.91-26.67-23.07-57.92-31.05-92.58-25.38-18.58,3-34.81,12.06-50.83,21.4q-50.46,29.4-101,58.7a5.74,5.74,0,0,0-3.26,5.79c.12,16.73.06,33.46.07,50.18C386,378.48,386.08,379.58,386.18,381.7ZM540.53,430v5q0,73.15,0,146.31c0,4.87-.46,9.74-.61,14.62-.19,6.31-3.12,11-8.29,14.4-2,1.34-4.05,2.75-6.16,4q-50.19,29.13-100.39,58.21c-4.61,2.68-9.16,5.46-14.7,8.78,4.64,3.63,8.29,7.36,12.67,9.78,26.27,14.52,54.27,20,83.6,12.44,38.69-9.94,65.37-33.94,78.76-71.88,6.22-17.61,6.11-36.16,6.32-54.47.41-36.93,0-73.87.23-110.8,0-5.25-1.44-8.95-5.94-11.49q-20.79-11.73-41.59-23.44A28.26,28.26,0,0,0,540.53,430ZM386.09,450H386c0,10.29.29,20.6-.13,30.87-.2,4.89,1.06,8,5.71,9.82,2.36.92,4.41,2.62,6.65,3.87q24.21,13.55,48.44,27.05a5.84,5.84,0,0,0,6.44,0c5.23-3,10.76-5.5,16-8.55,13.73-8.05,27.35-16.29,41-24.47,2.9-1.73,4-4.19,4-7.7-.16-19.56-.32-39.12.08-58.67.12-5.88-1.63-9.69-6.62-12.56-17.14-9.86-34.27-19.76-51.25-29.89-4-2.4-7.54-2.62-11.42-.28-.88.53-1.9.82-2.79,1.33-17.85,10.18-35.72,20.33-53.47,30.68a6.14,6.14,0,0,0-2.35,4.55C386,427.37,386.09,438.7,386.09,450Z"/></svg>