<svg id="Layer_1" data-name="Layer 1" xmlns="http://www.w3.org/2000/svg" viewBox="0 0 900 900"><defs><style>.cls-1{fill:#293036;}.cls-2{fill:#fff;}</style></defs><title>icons </title><circle class="cls-1" cx="450" cy="450" r="450"/><path class="cls-2" d="M292.36,616.76A189.8,189.8,0,0,1,252,596.4c.21-.25.66-.62.61-.71a10.59,10.59,0,0,0-1.05-1.37q-.24-82.37-.46-164.72c0-21.36.3-42.73.46-64.09l5.85-.3c23,8,44,20.52,66.14,30.34,3.92,1.74,3.44,5.19,4,8.37,7.4,41,14.83,81.93,24.37,123.23,2.7-12,5.5-23.89,8.1-35.87,4.54-20.89,9.24-41.76,13.25-62.76,1.21-6.38,2.54-8.31,9-5.14,20.85,10.24,41.9,20.09,62.95,29.91,4.07,1.9,6.33,4,6.32,9q-.24,114.15-.11,228.63c-5.53-.1-9.22-3.3-13.33-5.45L435,683.69a1.55,1.55,0,0,1-1.28-.41l-3.29-1.72a1.3,1.3,0,0,1-1.15-.47L426,679.34a1.26,1.26,0,0,1-1.16-.44l-3.28-1.78a1.25,1.25,0,0,1-1.16-.44L417,674.92a1.2,1.2,0,0,1-1.14-.45l-3.36-1.72a1,1,0,0,1-1.08-.44l-3.36-1.79a1.07,1.07,0,0,1-1.1-.43l-2.85-1.38-.46-.32c2.19-44.3.39-88.61.92-132.91,0-1.86-.07-4.11-2.24-4.49-2.51-.44-4.41,1.64-4.91,3.62-2,7.92-5.92,15.6-3.69,24.17C387.15,589,380.41,619.13,374,649.37c-1.18,5.56-3.38,5.47-7.58,3.32-11.47-5.9-23-11.63-34.6-17.29-3-1.46-4.24-3.61-4.79-6.8Q314.84,557.31,302.46,486c-.41-1.28-.76-2.58-1.29-3.8-.06-.13-1.56,0-1.74.36-.86,1.61.3,2.46,1.52,3.21q-.19,58.73-.41,117.47c0,4.42-.26,8.85-.4,13.27Z"/><path class="cls-2" d="M258.94,351.41c18.16-15.41,35-29.76,51.95-44.07,5.81-4.92,11.61-2.36,17.19.43,39.91,20,79.46,40.7,119.79,59.79,25.47,12.05,44.46,5.94,62.35-15.12,6.21-7.32,4.68-15.09-1.71-21.94-4.63-4.94-10.49-8.13-16.41-11.16-37.76-19.35-75.42-38.89-113.4-57.79-8.16-4.06-7.44-6.35-1.28-11.54,14.7-12.4,29.05-25.23,43.33-38.11,3.65-3.3,6.44-4.7,11.44-2,35.89,19.44,73.24,36,108.77,56.32,11.38,6.5,23.43,12.14,34.29,19.57,25.31,17.33,31.07,48.84,11.62,72.21-30.85,37.08-66.82,67.07-117.28,73.25-25.1,3.08-50,.75-72.63-10.16C351.12,399,306.06,375.32,258.94,351.41Z"/><path class="cls-2" d="M648.8,529.12c0,21.46-.11,40.94.09,60.42.05,4.37-2.79,5.58-5.71,7.11Q555,643.06,466.88,689.5c-6.19,3.27-8.68,3.26-8.65-5.15.22-73.65,0-147.29,0-220.94,0-3.24-.77-6.76,3-8.73,25.12-13,50.22-25.95,76.85-39.71V586.25Z"/><path class="cls-2" d="M393.77,558.78c-2.23-8.57,1.71-16.25,3.69-24.17.5-2,2.4-4.06,4.91-3.62,2.17.38,2.26,2.63,2.24,4.49-.53,44.3,1.27,88.61-.92,132.91-4.87-2.63-2.78-7.24-2.79-11-.16-35.49-.1-71-.1-106.49V540.32l-1.53-.2Q396.53,549.45,393.77,558.78Z"/><path class="cls-2" d="M292.36,616.76l7.78-.21C298.92,621.94,298.86,621.94,292.36,616.76Z"/><path class="cls-2" d="M301,485.81c-1.22-.75-2.38-1.6-1.52-3.21.18-.35,1.68-.49,1.74-.36.53,1.22.88,2.52,1.29,3.8C302,486,301.45,485.9,301,485.81Z"/><path class="cls-2" d="M257.42,365.21l-5.85.3C253.13,357.6,255.43,364.44,257.42,365.21Z"/><path class="cls-2" d="M251.57,594.32a10.59,10.59,0,0,1,1.05,1.37c0,.09-.4.46-.61.71C251.86,595.71,251.72,595,251.57,594.32Z"/><path class="cls-2" d="M404.15,668.71l2.85,1.38Z"/><path class="cls-2" d="M408.1,670.52l3.36,1.79Z"/><path class="cls-2" d="M412.54,672.75l3.36,1.72Z"/><path class="cls-2" d="M417,674.92l3.31,1.76Z"/><path class="cls-2" d="M421.51,677.12l3.28,1.78Z"/><path class="cls-2" d="M426,679.34l3.29,1.75Z"/><path class="cls-2" d="M430.39,681.56l3.29,1.72Z"/><path class="cls-2" d="M435,683.69l3.16,1.78Z"/></svg>